<mxfile
  host="Electron" 
  agent="Mozilla/5.0 (Macintosh; Intel Mac OS X 10_15_7) AppleWebKit/537.36 (KHTML, like Gecko) draw.io/25.0.2 Chrome/128.0.6613.186 Electron/32.2.5 Safari/537.36" 
  version="25.0.2"
  >
  <diagram
    name="dinghy-top-level-folder-structure"
    >
    <mxGraphModel
      grid="1" 
      gridSize="10" 
      guides="1" 
      tooltips="1" 
      connect="1" 
      arrows="1" 
      fold="1" 
      page="1" 
      pageScale="1" 
      pageWidth="1" 
      pageHeight="1" 
      math="0" 
      shadow="0"
      >
      <root>
        <mxCell
          id="page"
          />
        <mxCell
          id="root" 
          parent="page"
          />
        <mxCell
          style="verticalAlign=top;aspect=fixed;align=center;spacingLeft=5;spacingRight=5;spacingBottom=5;strokeColor=none;" 
          id="dinghy_dinghytoplevelfolderstructure" 
          parent="root" 
          value="Dinghy Top Level Folder Structure" 
          vertex="1"
          >
          <mxGeometry
            as="geometry" 
            width="300" 
            height="470" 
            x="0" 
            y="0"
            />
          </mxCell>
        <mxCell
          style="rounded=1;whiteSpace=wrap;verticalAlign=top;align=center;sketch=0;outlineConnect=0;fontColor=#232F3E;gradientColor=none;fillColor=#232F3D;strokeColor=none;dashed=0;verticalLabelPosition=bottom;html=1;fontSize=12;fontStyle=0;aspect=fixed;pointerEvents=1;shape=mxgraph.aws4.folder;" 
          id="folder_core" 
          parent="dinghy_dinghytoplevelfolderstructure" 
          value="core" 
          vertex="1"
          >
          <mxGeometry
            as="geometry" 
            width="60" 
            height="60" 
            x="120" 
            y="30"
            />
          </mxCell>
        <mxCell
          style="verticalAlign=top;aspect=fixed;align=center;spacingLeft=5;spacingRight=5;spacingBottom=5;noLabel=1;opacity=0;" 
          id="columns" 
          parent="dinghy_dinghytoplevelfolderstructure" 
          value="Columns" 
          vertex="1"
          >
          <mxGeometry
            as="geometry" 
            width="270" 
            height="110" 
            x="15" 
            y="125"
            />
          </mxCell>
        <mxCell
          style="rounded=1;whiteSpace=wrap;verticalAlign=top;align=center;sketch=0;outlineConnect=0;fontColor=#232F3E;gradientColor=none;fillColor=#232F3D;strokeColor=none;dashed=0;verticalLabelPosition=bottom;html=1;fontSize=12;fontStyle=0;aspect=fixed;pointerEvents=1;shape=mxgraph.aws4.folder;" 
          id="folder_engine" 
          parent="columns" 
          value="engine" 
          vertex="1"
          >
          <mxGeometry
            as="geometry" 
            width="60" 
            height="60" 
            x="15" 
            y="15"
            />
          </mxCell>
        <mxCell
          style="rounded=1;whiteSpace=wrap;verticalAlign=top;align=center;sketch=0;outlineConnect=0;fontColor=#232F3E;gradientColor=none;fillColor=#232F3D;strokeColor=none;dashed=0;verticalLabelPosition=bottom;html=1;fontSize=12;fontStyle=0;aspect=fixed;pointerEvents=1;shape=mxgraph.aws4.folder;" 
          id="folder_docker" 
          parent="columns" 
          value="docker" 
          vertex="1"
          >
          <mxGeometry
            as="geometry" 
            width="60" 
            height="60" 
            x="105" 
            y="15"
            />
          </mxCell>
        <mxCell
          style="rounded=1;whiteSpace=wrap;verticalAlign=top;align=center;sketch=0;outlineConnect=0;fontColor=#232F3E;gradientColor=none;fillColor=#232F3D;strokeColor=none;dashed=0;verticalLabelPosition=bottom;html=1;fontSize=12;fontStyle=0;aspect=fixed;pointerEvents=1;shape=mxgraph.aws4.folder;" 
          id="folder_examples" 
          parent="columns" 
          value="examples" 
          vertex="1"
          >
          <mxGeometry
            as="geometry" 
            width="60" 
            height="60" 
            x="195" 
            y="15"
            />
          </mxCell>
        <mxCell
          style="verticalAlign=top;aspect=fixed;align=center;spacingLeft=5;spacingRight=5;spacingBottom=5;noLabel=1;opacity=0;" 
          id="columns_2" 
          parent="dinghy_dinghytoplevelfolderstructure" 
          value="Columns" 
          vertex="1"
          >
          <mxGeometry
            as="geometry" 
            width="270" 
            height="110" 
            x="15" 
            y="235"
            />
          </mxCell>
        <mxCell
          style="rounded=1;whiteSpace=wrap;verticalAlign=top;align=center;sketch=0;outlineConnect=0;fontColor=#232F3E;gradientColor=none;fillColor=#232F3D;strokeColor=none;dashed=0;verticalLabelPosition=bottom;html=1;fontSize=12;fontStyle=0;aspect=fixed;pointerEvents=1;shape=mxgraph.aws4.folder;" 
          id="folder_cli" 
          parent="columns_2" 
          value="cli" 
          vertex="1"
          >
          <mxGeometry
            as="geometry" 
            width="60" 
            height="60" 
            x="15" 
            y="15"
            />
          </mxCell>
        <mxCell
          style="rounded=1;whiteSpace=wrap;verticalAlign=top;align=center;sketch=0;outlineConnect=0;fontColor=#232F3E;gradientColor=none;fillColor=#232F3D;strokeColor=none;dashed=0;verticalLabelPosition=bottom;html=1;fontSize=12;fontStyle=0;aspect=fixed;pointerEvents=1;shape=mxgraph.aws4.folder;" 
          id="folder_tasks" 
          parent="columns_2" 
          value="tasks" 
          vertex="1"
          >
          <mxGeometry
            as="geometry" 
            width="60" 
            height="60" 
            x="105" 
            y="15"
            />
          </mxCell>
        <mxCell
          style="rounded=1;whiteSpace=wrap;verticalAlign=top;align=center;sketch=0;outlineConnect=0;fontColor=#232F3E;gradientColor=none;fillColor=#232F3D;strokeColor=none;dashed=0;verticalLabelPosition=bottom;html=1;fontSize=12;fontStyle=0;aspect=fixed;pointerEvents=1;shape=mxgraph.aws4.folder;" 
          id="folder_github" 
          parent="columns_2" 
          value=".github" 
          vertex="1"
          >
          <mxGeometry
            as="geometry" 
            width="60" 
            height="60" 
            x="195" 
            y="15"
            />
          </mxCell>
        <mxCell
          style="verticalAlign=top;aspect=fixed;align=center;spacingLeft=5;spacingRight=5;spacingBottom=5;noLabel=1;opacity=0;" 
          id="columns_3" 
          parent="dinghy_dinghytoplevelfolderstructure" 
          value="Columns" 
          vertex="1"
          >
          <mxGeometry
            as="geometry" 
            width="270" 
            height="110" 
            x="15" 
            y="345"
            />
          </mxCell>
        <mxCell
          style="rounded=1;whiteSpace=wrap;verticalAlign=top;align=center;sketch=0;outlineConnect=0;fontColor=#232F3E;gradientColor=none;fillColor=#232F3D;strokeColor=none;dashed=0;verticalLabelPosition=bottom;html=1;fontSize=12;fontStyle=0;aspect=fixed;pointerEvents=1;shape=mxgraph.aws4.folder;" 
          id="folder_sites" 
          parent="columns_3" 
          value="sites" 
          vertex="1"
          >
          <mxGeometry
            as="geometry" 
            width="60" 
            height="60" 
            x="105" 
            y="15"
            />
          </mxCell>
        <mxCell
          id="dependency" 
          source="folder_engine" 
          target="folder_core" 
          parent="root" 
          edge="1" 
          style="edgeStyle=orthogonalEdgeStyle;"
          >
          <mxGeometry
            relative="1" 
            as="geometry"
            >
            <Array
              as="points"
              >
              <mxPoint
                x="60" 
                y="115"
                />
              <mxPoint
                x="145" 
                y="115"
                />
              </Array>
            </mxGeometry>
          </mxCell>
        <mxCell
          id="dependency_2" 
          source="folder_examples" 
          target="folder_core" 
          parent="root" 
          edge="1" 
          style="edgeStyle=orthogonalEdgeStyle;"
          >
          <mxGeometry
            relative="1" 
            as="geometry"
            >
            <Array
              as="points"
              >
              <mxPoint
                x="240" 
                y="115"
                />
              <mxPoint
                x="155" 
                y="115"
                />
              </Array>
            </mxGeometry>
          </mxCell>
        <mxCell
          id="dependency_3" 
          source="folder_cli" 
          target="folder_engine" 
          parent="root" 
          edge="1" 
          style="edgeStyle=orthogonalEdgeStyle;"
          >
          <mxGeometry
            relative="1" 
            as="geometry"
            >
            <Array
              as="points"
              >
              <mxPoint
                x="60" 
                y="225"
                />
              <mxPoint
                x="60" 
                y="225"
                />
              </Array>
            </mxGeometry>
          </mxCell>
        <mxCell
          id="dependency_4" 
          source="folder_tasks" 
          target="folder_cli" 
          parent="root" 
          edge="1" 
          style="edgeStyle=orthogonalEdgeStyle;"
          >
          <mxGeometry
            relative="1" 
            as="geometry"
            >
            <Array
              as="points"
              >
              <mxPoint
                x="105" 
                y="280"
                />
              <mxPoint
                x="105" 
                y="280"
                />
              </Array>
            </mxGeometry>
          </mxCell>
        <mxCell
          id="dependency_5" 
          source="folder_tasks" 
          target="folder_docker" 
          parent="root" 
          edge="1" 
          style="edgeStyle=orthogonalEdgeStyle;"
          >
          <mxGeometry
            relative="1" 
            as="geometry"
            >
            <Array
              as="points"
              >
              <mxPoint
                x="150" 
                y="225"
                />
              <mxPoint
                x="150" 
                y="225"
                />
              </Array>
            </mxGeometry>
          </mxCell>
        <mxCell
          id="dependency_6" 
          source="folder_tasks" 
          target="folder_sites" 
          parent="root" 
          edge="1" 
          style="edgeStyle=orthogonalEdgeStyle;"
          >
          <mxGeometry
            relative="1" 
            as="geometry"
            >
            <Array
              as="points"
              >
              <mxPoint
                x="150" 
                y="335"
                />
              <mxPoint
                x="150" 
                y="335"
                />
              </Array>
            </mxGeometry>
          </mxCell>
        <mxCell
          id="dependency_7" 
          source="folder_github" 
          target="folder_tasks" 
          parent="root" 
          edge="1" 
          style="edgeStyle=orthogonalEdgeStyle;"
          >
          <mxGeometry
            relative="1" 
            as="geometry"
            >
            <Array
              as="points"
              >
              <mxPoint
                x="195" 
                y="280"
                />
              <mxPoint
                x="195" 
                y="280"
                />
              </Array>
            </mxGeometry>
          </mxCell>
        </root>
      </mxGraphModel>
    </diagram>
  </mxfile>